<?xml version="1.0" encoding="UTF-8" standalone="no"?><svg xmlns="http://www.w3.org/2000/svg" xmlns:xlink="http://www.w3.org/1999/xlink" contentStyleType="text/css" height="430px" preserveAspectRatio="none" style="width:640px;height:430px;background:#FFFFFF;" version="1.1" viewBox="0 0 640 430" width="640px" zoomAndPan="magnify"><defs/><g><ellipse cx="324.5" cy="20" fill="#222222" rx="10" ry="10" style="stroke:#222222;stroke-width:1.0;"/><polygon fill="#F1F1F1" points="32,50,138,50,150,62,138,74,32,74,20,62,32,50" style="stroke:#181818;stroke-width:0.5;"/><text fill="#000000" font-family="sans-serif" font-size="11" lengthAdjust="spacing" textLength="16" x="89" y="83.6787">yes</text><text fill="#000000" font-family="sans-serif" font-size="11" lengthAdjust="spacing" textLength="106" x="32" y="66.1787">workflow_dispatch ?</text><polygon fill="#F1F1F1" points="182,50,300,50,312,62,300,74,182,74,170,62,182,50" style="stroke:#181818;stroke-width:0.5;"/><text fill="#000000" font-family="sans-serif" font-size="11" lengthAdjust="spacing" textLength="16" x="245" y="83.6787">yes</text><text fill="#000000" font-family="sans-serif" font-size="11" lengthAdjust="spacing" textLength="118" x="182" y="66.1787">push to main branch ?</text><polygon fill="#F1F1F1" points="344,50,418,50,430,62,418,74,344,74,332,62,344,50" style="stroke:#181818;stroke-width:0.5;"/><text fill="#000000" font-family="sans-serif" font-size="11" lengthAdjust="spacing" textLength="16" x="385" y="83.6787">yes</text><text fill="#000000" font-family="sans-serif" font-size="11" lengthAdjust="spacing" textLength="74" x="344" y="66.1787">pull_request ?</text><polygon fill="#F1F1F1" points="462,50,567,50,579,62,567,74,462,74,450,62,462,50" style="stroke:#181818;stroke-width:0.5;"/><text fill="#000000" font-family="sans-serif" font-size="11" lengthAdjust="spacing" textLength="16" x="518.5" y="83.6787">yes</text><text fill="#000000" font-family="sans-serif" font-size="11" lengthAdjust="spacing" textLength="105" x="462" y="66.1787">scheduled by cron ?</text><text fill="#000000" font-family="sans-serif" font-size="11" lengthAdjust="spacing" textLength="14" x="579" y="60.6787">no</text><ellipse cx="614" cy="102.5" rx="11" ry="11" style="stroke:#222222;stroke-width:1.0;fill:none;"/><ellipse cx="614" cy="102.5" fill="#222222" rx="6" ry="6" style="stroke:#111111;stroke-width:1.0;"/><rect fill="#555555" height="6" rx="2.5" ry="2.5" style="stroke:#555555;stroke-width:1.0;" width="540" x="54.5" y="153.5"/><rect fill="#F1F1F1" height="32" rx="12.5" ry="12.5" style="stroke:#181818;stroke-width:0.5;" width="47" x="68.5" y="241"/><text fill="#000000" font-family="sans-serif" font-size="12" lengthAdjust="spacing" textLength="27" x="78.5" y="261.5586">build</text><rect fill="#F1F1F1" height="32" rx="12.5" ry="12.5" style="stroke:#181818;stroke-width:0.5;" width="74" x="218" y="179.5"/><text fill="#000000" font-family="sans-serif" font-size="12" lengthAdjust="spacing" textLength="54" x="228" y="200.0586">dockerize</text><rect fill="none" height="130" style="stroke:#000000;stroke-width:1.5;" width="223" x="143.5" y="221.5"/><path d="M253.5,221.5 L253.5,228.5 L243.5,238.5 L143.5,238.5 " fill="none" style="stroke:#000000;stroke-width:1.5;"/><text fill="#000000" font-family="sans-serif" font-size="14" lengthAdjust="spacing" textLength="100" x="146.5" y="234.8184">Container Scan</text><rect fill="#555555" height="6" rx="2.5" ry="2.5" style="stroke:#555555;stroke-width:1.0;" width="203" x="153.5" y="255.5"/><rect fill="#F1F1F1" height="32" rx="12.5" ry="12.5" style="stroke:#181818;stroke-width:0.5;" width="43" x="167.5" y="281.5"/><text fill="#000000" font-family="sans-serif" font-size="12" lengthAdjust="spacing" textLength="23" x="177.5" y="302.0586">trivy</text><rect fill="#F1F1F1" height="32" rx="12.5" ry="12.5" style="stroke:#181818;stroke-width:0.5;" width="104" x="238.5" y="281.5"/><text fill="#000000" font-family="sans-serif" font-size="12" lengthAdjust="spacing" textLength="84" x="248.5" y="302.0586">anchore-image</text><rect fill="#555555" height="6" rx="2.5" ry="2.5" style="stroke:#555555;stroke-width:1.0;" width="203" x="153.5" y="333.5"/><rect fill="#F1F1F1" height="32" rx="12.5" ry="12.5" style="stroke:#181818;stroke-width:0.5;" width="93" x="394.5" y="241"/><text fill="#000000" font-family="sans-serif" font-size="12" lengthAdjust="spacing" textLength="73" x="404.5" y="261.5586">anchore-files</text><rect fill="#F1F1F1" height="32" rx="12.5" ry="12.5" style="stroke:#181818;stroke-width:0.5;" width="65" x="515.5" y="241"/><text fill="#000000" font-family="sans-serif" font-size="12" lengthAdjust="spacing" textLength="45" x="525.5" y="261.5586">hadolint</text><rect fill="#555555" height="6" rx="2.5" ry="2.5" style="stroke:#555555;stroke-width:1.0;" width="540" x="54.5" y="371.5"/><ellipse cx="324.5" cy="408.5" rx="11" ry="11" style="stroke:#222222;stroke-width:1.0;fill:none;"/><ellipse cx="324.5" cy="408.5" fill="#222222" rx="6" ry="6" style="stroke:#111111;stroke-width:1.0;"/><line style="stroke:#181818;stroke-width:1.0;" x1="85" x2="85" y1="74" y2="133.5"/><polygon fill="#181818" points="81,123.5,85,133.5,89,123.5,85,127.5" style="stroke:#181818;stroke-width:1.0;"/><line style="stroke:#181818;stroke-width:1.0;" x1="241" x2="241" y1="74" y2="133.5"/><polygon fill="#181818" points="237,123.5,241,133.5,245,123.5,241,127.5" style="stroke:#181818;stroke-width:1.0;"/><line style="stroke:#181818;stroke-width:1.0;" x1="381" x2="381" y1="74" y2="133.5"/><polygon fill="#181818" points="377,123.5,381,133.5,385,123.5,381,127.5" style="stroke:#181818;stroke-width:1.0;"/><line style="stroke:#181818;stroke-width:1.0;" x1="514.5" x2="514.5" y1="74" y2="133.5"/><polygon fill="#181818" points="510.5,123.5,514.5,133.5,518.5,123.5,514.5,127.5" style="stroke:#181818;stroke-width:1.0;"/><line style="stroke:#181818;stroke-width:1.0;" x1="150" x2="170" y1="62" y2="62"/><polygon fill="#181818" points="160,58,170,62,160,66,164,62" style="stroke:#181818;stroke-width:1.0;"/><line style="stroke:#181818;stroke-width:1.0;" x1="312" x2="332" y1="62" y2="62"/><polygon fill="#181818" points="322,58,332,62,322,66,326,62" style="stroke:#181818;stroke-width:1.0;"/><line style="stroke:#181818;stroke-width:1.0;" x1="430" x2="450" y1="62" y2="62"/><polygon fill="#181818" points="440,58,450,62,440,66,444,62" style="stroke:#181818;stroke-width:1.0;"/><line style="stroke:#181818;stroke-width:1.0;" x1="324.5" x2="324.5" y1="30" y2="35"/><line style="stroke:#181818;stroke-width:1.0;" x1="324.5" x2="85" y1="35" y2="35"/><line style="stroke:#181818;stroke-width:1.0;" x1="85" x2="85" y1="35" y2="50"/><polygon fill="#181818" points="81,40,85,50,89,40,85,44" style="stroke:#181818;stroke-width:1.0;"/><line style="stroke:#181818;stroke-width:1.0;" x1="579" x2="614" y1="62" y2="62"/><line style="stroke:#181818;stroke-width:1.0;" x1="614" x2="614" y1="62" y2="91.5"/><polygon fill="#181818" points="610,81.5,614,91.5,618,81.5,614,85.5" style="stroke:#181818;stroke-width:1.0;"/><line style="stroke:#181818;stroke-width:1.0;" x1="85" x2="514.5" y1="133.5" y2="133.5"/><line style="stroke:#181818;stroke-width:1.0;" x1="189" x2="189" y1="261.5" y2="281.5"/><polygon fill="#181818" points="185,271.5,189,281.5,193,271.5,189,275.5" style="stroke:#181818;stroke-width:1.0;"/><line style="stroke:#181818;stroke-width:1.0;" x1="290.5" x2="290.5" y1="261.5" y2="281.5"/><polygon fill="#181818" points="286.5,271.5,290.5,281.5,294.5,271.5,290.5,275.5" style="stroke:#181818;stroke-width:1.0;"/><line style="stroke:#181818;stroke-width:1.0;" x1="189" x2="189" y1="313.5" y2="333.5"/><polygon fill="#181818" points="185,323.5,189,333.5,193,323.5,189,327.5" style="stroke:#181818;stroke-width:1.0;"/><line style="stroke:#181818;stroke-width:1.0;" x1="290.5" x2="290.5" y1="313.5" y2="333.5"/><polygon fill="#181818" points="286.5,323.5,290.5,333.5,294.5,323.5,290.5,327.5" style="stroke:#181818;stroke-width:1.0;"/><line style="stroke:#181818;stroke-width:1.0;" x1="255" x2="255" y1="211.5" y2="255.5"/><polygon fill="#181818" points="251,245.5,255,255.5,259,245.5,255,249.5" style="stroke:#181818;stroke-width:1.0;"/><line style="stroke:#181818;stroke-width:1.0;" x1="92" x2="92" y1="159.5" y2="241"/><polygon fill="#181818" points="88,231,92,241,96,231,92,235" style="stroke:#181818;stroke-width:1.0;"/><line style="stroke:#181818;stroke-width:1.0;" x1="255" x2="255" y1="159.5" y2="179.5"/><polygon fill="#181818" points="251,169.5,255,179.5,259,169.5,255,173.5" style="stroke:#181818;stroke-width:1.0;"/><line style="stroke:#181818;stroke-width:1.0;" x1="441" x2="441" y1="159.5" y2="241"/><polygon fill="#181818" points="437,231,441,241,445,231,441,235" style="stroke:#181818;stroke-width:1.0;"/><line style="stroke:#181818;stroke-width:1.0;" x1="548" x2="548" y1="159.5" y2="241"/><polygon fill="#181818" points="544,231,548,241,552,231,548,235" style="stroke:#181818;stroke-width:1.0;"/><line style="stroke:#181818;stroke-width:1.0;" x1="92" x2="92" y1="273" y2="371.5"/><polygon fill="#181818" points="88,361.5,92,371.5,96,361.5,92,365.5" style="stroke:#181818;stroke-width:1.0;"/><line style="stroke:#181818;stroke-width:1.0;" x1="255" x2="255" y1="339.5" y2="371.5"/><polygon fill="#181818" points="251,361.5,255,371.5,259,361.5,255,365.5" style="stroke:#181818;stroke-width:1.0;"/><line style="stroke:#181818;stroke-width:1.0;" x1="441" x2="441" y1="273" y2="371.5"/><polygon fill="#181818" points="437,361.5,441,371.5,445,361.5,441,365.5" style="stroke:#181818;stroke-width:1.0;"/><line style="stroke:#181818;stroke-width:1.0;" x1="548" x2="548" y1="273" y2="371.5"/><polygon fill="#181818" points="544,361.5,548,371.5,552,361.5,548,365.5" style="stroke:#181818;stroke-width:1.0;"/><line style="stroke:#181818;stroke-width:1.0;" x1="324.5" x2="324.5" y1="133.5" y2="153.5"/><polygon fill="#181818" points="320.5,143.5,324.5,153.5,328.5,143.5,324.5,147.5" style="stroke:#181818;stroke-width:1.0;"/><line style="stroke:#181818;stroke-width:1.0;" x1="324.5" x2="324.5" y1="377.5" y2="397.5"/><polygon fill="#181818" points="320.5,387.5,324.5,397.5,328.5,387.5,324.5,391.5" style="stroke:#181818;stroke-width:1.0;"/><!--MD5=[78b0f6d25029d54c2cd7a1d5494b21d0]
@startuml python-ci-summary

start 

if (workflow_dispatch ?) then (yes)
elseif (push to main branch ?) then (yes)
elseif (pull_request ?) then (yes)
elseif (scheduled by cron ?) then (yes)
else (no)
  stop
endif

fork
  :build;
fork again
  :dockerize;
  partition "Container Scan" {
    fork
      :trivy;
    fork again
      :anchore-image;
    end fork
  }

fork again
  :anchore-files;
fork again
  :hadolint;
end fork
stop

@enduml

PlantUML version 1.2022.5(Sat Apr 30 19:55:52 JST 2022)
(GPL source distribution)
Java Runtime: OpenJDK Runtime Environment
JVM: OpenJDK 64-Bit Server VM
Default Encoding: UTF-8
Language: ja
Country: JP
--></g></svg>