<?xml version="1.0" encoding="UTF-8" standalone="no"?><svg xmlns="http://www.w3.org/2000/svg" xmlns:xlink="http://www.w3.org/1999/xlink" contentStyleType="text/css" height="290px" preserveAspectRatio="none" style="width:383px;height:290px;background:#FFFFFF;" version="1.1" viewBox="0 0 383 290" width="383px" zoomAndPan="magnify"><defs/><g><ellipse cx="196" cy="20" fill="#222222" rx="10" ry="10" style="stroke:#222222;stroke-width:1.0;"/><polygon fill="#F1F1F1" points="32,50,138,50,150,62,138,74,32,74,20,62,32,50" style="stroke:#181818;stroke-width:0.5;"/><text fill="#000000" font-family="sans-serif" font-size="11" lengthAdjust="spacing" textLength="16" x="89" y="83.6787">yes</text><text fill="#000000" font-family="sans-serif" font-size="11" lengthAdjust="spacing" textLength="106" x="32" y="66.1787">workflow_dispatch ?</text><polygon fill="#F1F1F1" points="182,50,310,50,322,62,310,74,182,74,170,62,182,50" style="stroke:#181818;stroke-width:0.5;"/><text fill="#000000" font-family="sans-serif" font-size="11" lengthAdjust="spacing" textLength="16" x="250" y="83.6787">yes</text><text fill="#000000" font-family="sans-serif" font-size="11" lengthAdjust="spacing" textLength="128" x="182" y="66.1787">push to tags like "v*.*.*" ?</text><text fill="#000000" font-family="sans-serif" font-size="11" lengthAdjust="spacing" textLength="14" x="322" y="60.6787">no</text><ellipse cx="357" cy="102.5" rx="11" ry="11" style="stroke:#222222;stroke-width:1.0;fill:none;"/><ellipse cx="357" cy="102.5" fill="#222222" rx="6" ry="6" style="stroke:#111111;stroke-width:1.0;"/><rect fill="#555555" height="6" rx="2.5" ry="2.5" style="stroke:#555555;stroke-width:1.0;" width="269" x="61.5" y="153.5"/><rect fill="#F1F1F1" height="32" rx="12.5" ry="12.5" style="stroke:#181818;stroke-width:0.5;" width="57" x="75.5" y="179.5"/><text fill="#000000" font-family="sans-serif" font-size="12" lengthAdjust="spacing" textLength="37" x="85.5" y="200.0586">deploy</text><rect fill="#F1F1F1" height="32" rx="12.5" ry="12.5" style="stroke:#181818;stroke-width:0.5;" width="74" x="160.5" y="179.5"/><text fill="#000000" font-family="sans-serif" font-size="12" lengthAdjust="spacing" textLength="54" x="170.5" y="200.0586">dockerize</text><rect fill="#F1F1F1" height="32" rx="12.5" ry="12.5" style="stroke:#181818;stroke-width:0.5;" width="54" x="262.5" y="179.5"/><text fill="#000000" font-family="sans-serif" font-size="12" lengthAdjust="spacing" textLength="34" x="272.5" y="200.0586">pages</text><rect fill="#555555" height="6" rx="2.5" ry="2.5" style="stroke:#555555;stroke-width:1.0;" width="269" x="61.5" y="231.5"/><ellipse cx="196" cy="268.5" rx="11" ry="11" style="stroke:#222222;stroke-width:1.0;fill:none;"/><ellipse cx="196" cy="268.5" fill="#222222" rx="6" ry="6" style="stroke:#111111;stroke-width:1.0;"/><line style="stroke:#181818;stroke-width:1.0;" x1="85" x2="85" y1="74" y2="133.5"/><polygon fill="#181818" points="81,123.5,85,133.5,89,123.5,85,127.5" style="stroke:#181818;stroke-width:1.0;"/><line style="stroke:#181818;stroke-width:1.0;" x1="246" x2="246" y1="74" y2="133.5"/><polygon fill="#181818" points="242,123.5,246,133.5,250,123.5,246,127.5" style="stroke:#181818;stroke-width:1.0;"/><line style="stroke:#181818;stroke-width:1.0;" x1="150" x2="170" y1="62" y2="62"/><polygon fill="#181818" points="160,58,170,62,160,66,164,62" style="stroke:#181818;stroke-width:1.0;"/><line style="stroke:#181818;stroke-width:1.0;" x1="196" x2="196" y1="30" y2="35"/><line style="stroke:#181818;stroke-width:1.0;" x1="196" x2="85" y1="35" y2="35"/><line style="stroke:#181818;stroke-width:1.0;" x1="85" x2="85" y1="35" y2="50"/><polygon fill="#181818" points="81,40,85,50,89,40,85,44" style="stroke:#181818;stroke-width:1.0;"/><line style="stroke:#181818;stroke-width:1.0;" x1="322" x2="357" y1="62" y2="62"/><line style="stroke:#181818;stroke-width:1.0;" x1="357" x2="357" y1="62" y2="91.5"/><polygon fill="#181818" points="353,81.5,357,91.5,361,81.5,357,85.5" style="stroke:#181818;stroke-width:1.0;"/><line style="stroke:#181818;stroke-width:1.0;" x1="85" x2="246" y1="133.5" y2="133.5"/><line style="stroke:#181818;stroke-width:1.0;" x1="104" x2="104" y1="159.5" y2="179.5"/><polygon fill="#181818" points="100,169.5,104,179.5,108,169.5,104,173.5" style="stroke:#181818;stroke-width:1.0;"/><line style="stroke:#181818;stroke-width:1.0;" x1="197.5" x2="197.5" y1="159.5" y2="179.5"/><polygon fill="#181818" points="193.5,169.5,197.5,179.5,201.5,169.5,197.5,173.5" style="stroke:#181818;stroke-width:1.0;"/><line style="stroke:#181818;stroke-width:1.0;" x1="289.5" x2="289.5" y1="159.5" y2="179.5"/><polygon fill="#181818" points="285.5,169.5,289.5,179.5,293.5,169.5,289.5,173.5" style="stroke:#181818;stroke-width:1.0;"/><line style="stroke:#181818;stroke-width:1.0;" x1="104" x2="104" y1="211.5" y2="231.5"/><polygon fill="#181818" points="100,221.5,104,231.5,108,221.5,104,225.5" style="stroke:#181818;stroke-width:1.0;"/><line style="stroke:#181818;stroke-width:1.0;" x1="197.5" x2="197.5" y1="211.5" y2="231.5"/><polygon fill="#181818" points="193.5,221.5,197.5,231.5,201.5,221.5,197.5,225.5" style="stroke:#181818;stroke-width:1.0;"/><line style="stroke:#181818;stroke-width:1.0;" x1="289.5" x2="289.5" y1="211.5" y2="231.5"/><polygon fill="#181818" points="285.5,221.5,289.5,231.5,293.5,221.5,289.5,225.5" style="stroke:#181818;stroke-width:1.0;"/><line style="stroke:#181818;stroke-width:1.0;" x1="196" x2="196" y1="133.5" y2="153.5"/><polygon fill="#181818" points="192,143.5,196,153.5,200,143.5,196,147.5" style="stroke:#181818;stroke-width:1.0;"/><line style="stroke:#181818;stroke-width:1.0;" x1="196" x2="196" y1="237.5" y2="257.5"/><polygon fill="#181818" points="192,247.5,196,257.5,200,247.5,196,251.5" style="stroke:#181818;stroke-width:1.0;"/><!--MD5=[1cd86498b140d0841f10cf019d3657dc]
@startuml python-publish-summary

start 

if (workflow_dispatch ?) then (yes)
elseif (push to tags like "v*.*.*" ?) then (yes)
else (no)
  stop
endif

fork
  :deploy;
fork again
  :dockerize;
fork again
  :pages;
end fork
stop

@enduml

PlantUML version 1.2022.5(Sat Apr 30 19:55:52 JST 2022)
(GPL source distribution)
Java Runtime: OpenJDK Runtime Environment
JVM: OpenJDK 64-Bit Server VM
Default Encoding: UTF-8
Language: ja
Country: JP
--></g></svg>