<?xml version="1.0" encoding="UTF-8" standalone="no"?><svg xmlns="http://www.w3.org/2000/svg" xmlns:xlink="http://www.w3.org/1999/xlink" contentStyleType="text/css" height="378px" preserveAspectRatio="none" style="width:1201px;height:378px;background:#FFFFFF;" version="1.1" viewBox="0 0 1201 378" width="1201px" zoomAndPan="magnify"><defs/><g><ellipse cx="594" cy="20" fill="#222222" rx="10" ry="10" style="stroke:#222222;stroke-width:1.0;"/><polygon fill="#F1F1F1" points="286,50,357,50,369,62,357,74,286,74,274,62,286,50" style="stroke:#181818;stroke-width:0.5;"/><text fill="#000000" font-family="sans-serif" font-size="11" lengthAdjust="spacing" textLength="16" x="325.5" y="83.6787">yes</text><text fill="#000000" font-family="sans-serif" font-size="11" lengthAdjust="spacing" textLength="71" x="286" y="66.1787">pull request ?</text><rect fill="#555555" height="6" rx="2.5" ry="2.5" style="stroke:#555555;stroke-width:1.0;" width="623" x="11" y="105"/><rect fill="#F1F1F1" height="32" rx="12.5" ry="12.5" style="stroke:#181818;stroke-width:0.5;" width="72" x="23" y="179"/><text fill="#000000" font-family="sans-serif" font-size="12" lengthAdjust="spacing" textLength="52" x="33" y="199.5586">python-ci</text><rect fill="#F1F1F1" height="32" rx="12.5" ry="12.5" style="stroke:#181818;stroke-width:0.5;" width="129" x="105" y="179"/><text fill="#000000" font-family="sans-serif" font-size="12" lengthAdjust="spacing" textLength="109" x="115" y="199.5586">dependency-review</text><rect fill="#F1F1F1" height="32" rx="12.5" ry="12.5" style="stroke:#181818;stroke-width:0.5;" width="155" x="244" y="179"/><text fill="#000000" font-family="sans-serif" font-size="12" lengthAdjust="spacing" textLength="135" x="254" y="199.5586">dependabot-auto-merge</text><polygon fill="#F1F1F1" points="266,131,377,131,389,143,377,155,266,155,254,143,266,131" style="stroke:#181818;stroke-width:0.5;"/><text fill="#000000" font-family="sans-serif" font-size="11" lengthAdjust="spacing" textLength="16" x="325.5" y="164.6787">yes</text><text fill="#000000" font-family="sans-serif" font-size="11" lengthAdjust="spacing" textLength="111" x="266" y="147.1787">actor is dependabot?</text><text fill="#000000" font-family="sans-serif" font-size="11" lengthAdjust="spacing" textLength="14" x="389" y="141.6787">no</text><polygon fill="#F1F1F1" points="321.5,235,333.5,247,321.5,259,309.5,247,321.5,235" style="stroke:#181818;stroke-width:0.5;"/><rect fill="#F1F1F1" height="32" rx="12.5" ry="12.5" style="stroke:#181818;stroke-width:0.5;" width="107" x="423" y="179"/><text fill="#000000" font-family="sans-serif" font-size="12" lengthAdjust="spacing" textLength="87" x="433" y="199.5586">codeql-analysis</text><rect fill="#F1F1F1" height="32" rx="12.5" ry="12.5" style="stroke:#181818;stroke-width:0.5;" width="82" x="540" y="179"/><text fill="#000000" font-family="sans-serif" font-size="12" lengthAdjust="spacing" textLength="62" x="550" y="199.5586">scorecards</text><rect fill="#555555" height="6" rx="2.5" ry="2.5" style="stroke:#555555;stroke-width:1.0;" width="623" x="11" y="279"/><polygon fill="#F1F1F1" points="897.5,50,929.5,50,941.5,62,929.5,74,897.5,74,885.5,62,897.5,50" style="stroke:#181818;stroke-width:0.5;"/><text fill="#000000" font-family="sans-serif" font-size="11" lengthAdjust="spacing" textLength="16" x="917.5" y="83.6787">yes</text><text fill="#000000" font-family="sans-serif" font-size="11" lengthAdjust="spacing" textLength="32" x="897.5" y="66.1787">push?</text><text fill="#000000" font-family="sans-serif" font-size="11" lengthAdjust="spacing" textLength="14" x="941.5" y="60.6787">no</text><polygon fill="#F1F1F1" points="656,130,780,130,792,142,780,154,656,154,644,142,656,130" style="stroke:#181818;stroke-width:0.5;"/><text fill="#000000" font-family="sans-serif" font-size="11" lengthAdjust="spacing" textLength="16" x="722" y="163.6787">yes</text><text fill="#000000" font-family="sans-serif" font-size="11" lengthAdjust="spacing" textLength="124" x="656" y="146.1787">target is tag like "v*.*.*" ?</text><rect fill="#F1F1F1" height="32" rx="12.5" ry="12.5" style="stroke:#181818;stroke-width:0.5;" width="102" x="667" y="185"/><text fill="#000000" font-family="sans-serif" font-size="12" lengthAdjust="spacing" textLength="82" x="677" y="205.5586">python-publish</text><polygon fill="#F1F1F1" points="913,130,1032,130,1044,142,1032,154,913,154,901,142,913,130" style="stroke:#181818;stroke-width:0.5;"/><text fill="#000000" font-family="sans-serif" font-size="11" lengthAdjust="spacing" textLength="16" x="976.5" y="163.6787">yes</text><text fill="#000000" font-family="sans-serif" font-size="11" lengthAdjust="spacing" textLength="119" x="913" y="146.1787">target is main branch ?</text><rect fill="#555555" height="6" rx="2.5" ry="2.5" style="stroke:#555555;stroke-width:1.0;" width="341" x="802" y="185"/><rect fill="#F1F1F1" height="32" rx="12.5" ry="12.5" style="stroke:#181818;stroke-width:0.5;" width="72" x="814" y="211"/><text fill="#000000" font-family="sans-serif" font-size="12" lengthAdjust="spacing" textLength="52" x="824" y="231.5586">python-ci</text><rect fill="#F1F1F1" height="32" rx="12.5" ry="12.5" style="stroke:#181818;stroke-width:0.5;" width="107" x="914" y="211"/><text fill="#000000" font-family="sans-serif" font-size="12" lengthAdjust="spacing" textLength="87" x="924" y="231.5586">codeql-analysis</text><rect fill="#F1F1F1" height="32" rx="12.5" ry="12.5" style="stroke:#181818;stroke-width:0.5;" width="82" x="1049" y="211"/><text fill="#000000" font-family="sans-serif" font-size="12" lengthAdjust="spacing" textLength="62" x="1059" y="231.5586">scorecards</text><rect fill="#555555" height="6" rx="2.5" ry="2.5" style="stroke:#555555;stroke-width:1.0;" width="341" x="802" y="263"/><ellipse cx="594" cy="356" rx="11" ry="11" style="stroke:#222222;stroke-width:1.0;fill:none;"/><ellipse cx="594" cy="356" fill="#222222" rx="6" ry="6" style="stroke:#111111;stroke-width:1.0;"/><line style="stroke:#181818;stroke-width:1.0;" x1="321.5" x2="321.5" y1="155" y2="179"/><polygon fill="#181818" points="317.5,169,321.5,179,325.5,169,321.5,173" style="stroke:#181818;stroke-width:1.0;"/><line style="stroke:#181818;stroke-width:1.0;" x1="389" x2="409" y1="143" y2="143"/><polygon fill="#181818" points="405,185,409,195,413,185,409,189" style="stroke:#181818;stroke-width:1.0;"/><line style="stroke:#181818;stroke-width:1.0;" x1="409" x2="409" y1="143" y2="247"/><line style="stroke:#181818;stroke-width:1.0;" x1="409" x2="333.5" y1="247" y2="247"/><polygon fill="#181818" points="343.5,243,333.5,247,343.5,251,339.5,247" style="stroke:#181818;stroke-width:1.0;"/><line style="stroke:#181818;stroke-width:1.0;" x1="321.5" x2="321.5" y1="211" y2="235"/><polygon fill="#181818" points="317.5,225,321.5,235,325.5,225,321.5,229" style="stroke:#181818;stroke-width:1.0;"/><line style="stroke:#181818;stroke-width:1.0;" x1="59" x2="59" y1="111" y2="179"/><polygon fill="#181818" points="55,169,59,179,63,169,59,173" style="stroke:#181818;stroke-width:1.0;"/><line style="stroke:#181818;stroke-width:1.0;" x1="169.5" x2="169.5" y1="111" y2="179"/><polygon fill="#181818" points="165.5,169,169.5,179,173.5,169,169.5,173" style="stroke:#181818;stroke-width:1.0;"/><line style="stroke:#181818;stroke-width:1.0;" x1="321.5" x2="321.5" y1="111" y2="131"/><polygon fill="#181818" points="317.5,121,321.5,131,325.5,121,321.5,125" style="stroke:#181818;stroke-width:1.0;"/><line style="stroke:#181818;stroke-width:1.0;" x1="476.5" x2="476.5" y1="111" y2="179"/><polygon fill="#181818" points="472.5,169,476.5,179,480.5,169,476.5,173" style="stroke:#181818;stroke-width:1.0;"/><line style="stroke:#181818;stroke-width:1.0;" x1="581" x2="581" y1="111" y2="179"/><polygon fill="#181818" points="577,169,581,179,585,169,581,173" style="stroke:#181818;stroke-width:1.0;"/><line style="stroke:#181818;stroke-width:1.0;" x1="59" x2="59" y1="211" y2="279"/><polygon fill="#181818" points="55,269,59,279,63,269,59,273" style="stroke:#181818;stroke-width:1.0;"/><line style="stroke:#181818;stroke-width:1.0;" x1="169.5" x2="169.5" y1="211" y2="279"/><polygon fill="#181818" points="165.5,269,169.5,279,173.5,269,169.5,273" style="stroke:#181818;stroke-width:1.0;"/><line style="stroke:#181818;stroke-width:1.0;" x1="321.5" x2="321.5" y1="259" y2="279"/><polygon fill="#181818" points="317.5,269,321.5,279,325.5,269,321.5,273" style="stroke:#181818;stroke-width:1.0;"/><line style="stroke:#181818;stroke-width:1.0;" x1="476.5" x2="476.5" y1="211" y2="279"/><polygon fill="#181818" points="472.5,269,476.5,279,480.5,269,476.5,273" style="stroke:#181818;stroke-width:1.0;"/><line style="stroke:#181818;stroke-width:1.0;" x1="581" x2="581" y1="211" y2="279"/><polygon fill="#181818" points="577,269,581,279,585,269,581,273" style="stroke:#181818;stroke-width:1.0;"/><line style="stroke:#181818;stroke-width:1.0;" x1="850" x2="850" y1="191" y2="211"/><polygon fill="#181818" points="846,201,850,211,854,201,850,205" style="stroke:#181818;stroke-width:1.0;"/><line style="stroke:#181818;stroke-width:1.0;" x1="967.5" x2="967.5" y1="191" y2="211"/><polygon fill="#181818" points="963.5,201,967.5,211,971.5,201,967.5,205" style="stroke:#181818;stroke-width:1.0;"/><line style="stroke:#181818;stroke-width:1.0;" x1="1090" x2="1090" y1="191" y2="211"/><polygon fill="#181818" points="1086,201,1090,211,1094,201,1090,205" style="stroke:#181818;stroke-width:1.0;"/><line style="stroke:#181818;stroke-width:1.0;" x1="850" x2="850" y1="243" y2="263"/><polygon fill="#181818" points="846,253,850,263,854,253,850,257" style="stroke:#181818;stroke-width:1.0;"/><line style="stroke:#181818;stroke-width:1.0;" x1="967.5" x2="967.5" y1="243" y2="263"/><polygon fill="#181818" points="963.5,253,967.5,263,971.5,253,967.5,257" style="stroke:#181818;stroke-width:1.0;"/><line style="stroke:#181818;stroke-width:1.0;" x1="1090" x2="1090" y1="243" y2="263"/><polygon fill="#181818" points="1086,253,1090,263,1094,253,1090,257" style="stroke:#181818;stroke-width:1.0;"/><line style="stroke:#181818;stroke-width:1.0;" x1="718" x2="718" y1="154" y2="185"/><polygon fill="#181818" points="714,175,718,185,722,175,718,179" style="stroke:#181818;stroke-width:1.0;"/><line style="stroke:#181818;stroke-width:1.0;" x1="718" x2="718" y1="217" y2="305"/><polygon fill="#181818" points="714,295,718,305,722,295,718,299" style="stroke:#181818;stroke-width:1.0;"/><line style="stroke:#181818;stroke-width:1.0;" x1="972.5" x2="972.5" y1="154" y2="185"/><polygon fill="#181818" points="968.5,175,972.5,185,976.5,175,972.5,179" style="stroke:#181818;stroke-width:1.0;"/><line style="stroke:#181818;stroke-width:1.0;" x1="972.5" x2="972.5" y1="269" y2="305"/><polygon fill="#181818" points="968.5,295,972.5,305,976.5,295,972.5,299" style="stroke:#181818;stroke-width:1.0;"/><line style="stroke:#181818;stroke-width:1.0;" x1="792" x2="901" y1="142" y2="142"/><polygon fill="#181818" points="891,138,901,142,891,146,895,142" style="stroke:#181818;stroke-width:1.0;"/><line style="stroke:#181818;stroke-width:1.0;" x1="913.5" x2="913.5" y1="74" y2="105"/><line style="stroke:#181818;stroke-width:1.0;" x1="913.5" x2="718" y1="105" y2="105"/><line style="stroke:#181818;stroke-width:1.0;" x1="718" x2="718" y1="105" y2="130"/><polygon fill="#181818" points="714,120,718,130,722,120,718,124" style="stroke:#181818;stroke-width:1.0;"/><line style="stroke:#181818;stroke-width:1.0;" x1="1044" x2="1157" y1="142" y2="142"/><line style="stroke:#181818;stroke-width:1.0;" x1="1157" x2="1157" y1="142" y2="305"/><polygon fill="#181818" points="1153,295,1157,305,1161,295,1157,299" style="stroke:#181818;stroke-width:1.0;"/><line style="stroke:#181818;stroke-width:1.0;" x1="718" x2="1157" y1="305" y2="305"/><line style="stroke:#181818;stroke-width:1.0;" x1="321.5" x2="321.5" y1="74" y2="105"/><polygon fill="#181818" points="317.5,95,321.5,105,325.5,95,321.5,99" style="stroke:#181818;stroke-width:1.0;"/><line style="stroke:#181818;stroke-width:1.0;" x1="321.5" x2="321.5" y1="285" y2="325"/><polygon fill="#181818" points="317.5,315,321.5,325,325.5,315,321.5,319" style="stroke:#181818;stroke-width:1.0;"/><line style="stroke:#181818;stroke-width:1.0;" x1="913.5" x2="913.5" y1="305" y2="325"/><polygon fill="#181818" points="909.5,315,913.5,325,917.5,315,913.5,319" style="stroke:#181818;stroke-width:1.0;"/><line style="stroke:#181818;stroke-width:1.0;" x1="369" x2="885.5" y1="62" y2="62"/><polygon fill="#181818" points="875.5,58,885.5,62,875.5,66,879.5,62" style="stroke:#181818;stroke-width:1.0;"/><line style="stroke:#181818;stroke-width:1.0;" x1="594" x2="594" y1="30" y2="35"/><line style="stroke:#181818;stroke-width:1.0;" x1="594" x2="321.5" y1="35" y2="35"/><line style="stroke:#181818;stroke-width:1.0;" x1="321.5" x2="321.5" y1="35" y2="50"/><polygon fill="#181818" points="317.5,40,321.5,50,325.5,40,321.5,44" style="stroke:#181818;stroke-width:1.0;"/><line style="stroke:#181818;stroke-width:1.0;" x1="941.5" x2="1175" y1="62" y2="62"/><line style="stroke:#181818;stroke-width:1.0;" x1="1175" x2="1175" y1="62" y2="325"/><polygon fill="#181818" points="1171,315,1175,325,1179,315,1175,319" style="stroke:#181818;stroke-width:1.0;"/><line style="stroke:#181818;stroke-width:1.0;" x1="321.5" x2="1175" y1="325" y2="325"/><line style="stroke:#181818;stroke-width:1.0;" x1="594" x2="594" y1="325" y2="345"/><polygon fill="#181818" points="590,335,594,345,598,335,594,339" style="stroke:#181818;stroke-width:1.0;"/><!--MD5=[5b4a57db66e1a967b9c6548c737e4472]
@startuml summary

' !pragma useVerticalIf on

start 

if (pull request ?) then (yes)
  fork
    :python-ci;
  fork again
    :dependency-review;
  fork again
    if (actor is dependabot?) then (yes)
      :dependabot-auto-merge;
    else (no)
    endif
  fork again
    :codeql-analysis;
  fork again
    :scorecards;
  end fork
elseif (push?) then (yes)
  if (target is tag like "v*.*.*" ?) then (yes)
    :python-publish;
  elseif (target is main branch ?) then (yes)
    fork
      :python-ci;
    fork again
      :codeql-analysis;
    fork again
      :scorecards;
    end fork
  endif
else (no)
endif

stop

@enduml

@startuml summary


start 

if (pull request ?) then (yes)
  fork
    :python-ci;
  fork again
    :dependency-review;
  fork again
    if (actor is dependabot?) then (yes)
      :dependabot-auto-merge;
    else (no)
    endif
  fork again
    :codeql-analysis;
  fork again
    :scorecards;
  end fork
elseif (push?) then (yes)
  if (target is tag like "v*.*.*" ?) then (yes)
    :python-publish;
  elseif (target is main branch ?) then (yes)
    fork
      :python-ci;
    fork again
      :codeql-analysis;
    fork again
      :scorecards;
    end fork
  endif
else (no)
endif

stop

@enduml

PlantUML version 1.2022.5(Sat Apr 30 19:55:52 JST 2022)
(GPL source distribution)
Java Runtime: OpenJDK Runtime Environment
JVM: OpenJDK 64-Bit Server VM
Default Encoding: UTF-8
Language: ja
Country: JP
--></g></svg>